{
  "accessors": [
    {
      "bufferView": 1,
      "componentType": 5126,
      "count": 3824,
      "max": [
        2.2965099811553955,
        3.2564499378204346,
        3.569890022277832
      ],
      "min": [
        -2.2965099811553955,
        -2.7463300228118896,
        -2.4353499412536621
      ],
      "type": "VEC3"
    },
    {
      "bufferView": 1,
      "byteOffset": 45888,
      "componentType": 5126,
      "count": 3824,
      "max": [
        1,
        0.99966323375701904,
        0.99966859817504883
      ],
      "min": [
        -1,
        -0.99966800212860107,
        -0.99966907501220703
      ],
      "type": "VEC3"
    },
    {
      "bufferView": 0,
      "componentType": 5125,
      "count": 20496,
      "max": [
        3823
      ],
      "min": [
        0
      ],
      "type": "SCALAR"
    },
    {
      "bufferView": 1,
      "byteOffset": 91776,
      "componentType": 5126,
      "count": 1394,
      "max": [
        2.2965099811553955,
        3.2565999031066895,
        3.5700199604034424
      ],
      "min": [
        -2.2965099811553955,
        -2.7464699745178223,
        -2.4354898929595947
      ],
      "type": "VEC3"
    },
    {
      "bufferView": 1,
      "byteOffset": 108504,
      "componentType": 5126,
      "count": 1394,
      "max": [
        1,
        1,
        1
      ],
      "min": [
        -1,
        -0.99999970197677612,
        -1
      ],
      "type": "VEC3"
    },
    {
      "bufferView": 0,
      "byteOffset": 81984,
      "componentType": 5125,
      "count": 6096,
      "max": [
        1393
      ],
      "min": [
        0
      ],
      "type": "SCALAR"
    },
    {
      "bufferView": 1,
      "byteOffset": 125232,
      "componentType": 5126,
      "count": 8448,
      "max": [
        2.3106598854064941,
        0.33623000979423523,
        1.8990700244903564
      ],
      "min": [
        -2.3237099647521973,
        -2.8064699172973633,
        -2.2328600883483887
      ],
      "type": "VEC3"
    },
    {
      "bufferView": 1,
      "byteOffset": 226608,
      "componentType": 5126,
      "count": 8448,
      "max": [
        1,
        1,
        1
      ],
      "min": [
        -1,
        -1,
        -1
      ],
      "type": "VEC3"
    },
    {
      "bufferView": 0,
      "byteOffset": 106368,
      "componentType": 5125,
      "count": 50652,
      "max": [
        8447
      ],
      "min": [
        0
      ],
      "type": "SCALAR"
    }
  ],
  "asset": {
    "extras": {
      "author": "Joel (https://sketchfab.com/ohsnapitsjoel)",
      "license": "CC-BY-4.0 (http://creativecommons.org/licenses/by/4.0/)",
      "source": "https://sketchfab.com/3d-models/loomis-head-b7e2cd611d844df9b69efdc9be6d0215",
      "title": "Loomis Head"
    },
    "generator": "Sketchfab-6.90.0",
    "version": "2.0"
  },
  "bufferViews": [
    {
      "buffer": 0,
      "byteLength": 308976,
      "byteOffset": 0,
      "name": "floatBufferViews",
      "target": 34963
    },
    {
      "buffer": 0,
      "byteLength": 327984,
      "byteOffset": 308976,
      "byteStride": 12,
      "name": "floatBufferViews",
      "target": 34962
    }
  ],
  "buffers": [
    {
      "byteLength": 636960,
      "uri": "scene.bin"
    }
  ],
  "materials": [
    {
      "doubleSided": true,
      "emissiveFactor": [
        0,
        0,
        0
      ],
      "name": "Material.002",
      "pbrMetallicRoughness": {
        "baseColorFactor": [
          0.020378809422254562,
          0.020378809422254562,
          0.020378809422254562,
          1
        ],
        "metallicFactor": 0,
        "roughnessFactor": 0.20999999999999996
      }
    },
    {
      "doubleSided": true,
      "emissiveFactor": [
        0,
        0,
        0
      ],
      "name": "Material.001",
      "pbrMetallicRoughness": {
        "baseColorFactor": [
          0.80000001192092896,
          0.80000001192092896,
          0.80000001192092896,
          1
        ],
        "metallicFactor": 0,
        "roughnessFactor": 0.10999999999999999
      }
    }
  ],
  "meshes": [
    {
      "name": "Sphere_0",
      "primitives": [
        {
          "attributes": {
            "NORMAL": 1,
            "POSITION": 0
          },
          "indices": 2,
          "material": 1,
          "mode": 4
        }
      ]
    },
    {
      "name": "Sphere_1",
      "primitives": [
        {
          "attributes": {
            "NORMAL": 4,
            "POSITION": 3
          },
          "indices": 5,
          "material": 0,
          "mode": 4
        }
      ]
    },
    {
      "name": "Plane.001_0",
      "primitives": [
        {
          "attributes": {
            "NORMAL": 7,
            "POSITION": 6
          },
          "indices": 8,
          "material": 0,
          "mode": 4
        }
      ]
    }
  ],
  "nodes": [
    {
      "children": [
        1
      ],
      "name": "RootNode (gltf orientation matrix)",
      "rotation": [
        -0.70710678118654746,
        -0,
        -0,
        0.70710678118654757
      ]
    },
    {
      "children": [
        2
      ],
      "name": "RootNode (model correction matrix)"
    },
    {
      "children": [
        3,
        6
      ],
      "name": "Root"
    },
    {
      "children": [
        4,
        5
      ],
      "matrix": [
        1,
        0,
        0,
        0,
        0,
        1,
        0,
        0,
        0,
        0,
        1,
        0,
        0,
        0,
        1.2714099999999999,
        1
      ],
      "name": "Sphere"
    },
    {
      "mesh": 0,
      "name": "Sphere_0"
    },
    {
      "mesh": 1,
      "name": "Sphere_1"
    },
    {
      "children": [
        7
      ],
      "matrix": [
        1,
        0,
        0,
        0,
        0,
        1,
        0,
        0,
        0,
        0,
        1,
        0,
        0,
        0,
        -0.037860000000000005,
        1
      ],
      "name": "Plane.001"
    },
    {
      "mesh": 2,
      "name": "Plane.001_0"
    }
  ],
  "scene": 0,
  "scenes": [
    {
      "name": "OSG_Scene",
      "nodes": [
        0
      ]
    }
  ]
}

